<svg width="32" height="30" viewBox="0 0 32 30" fill="none" xmlns="http://www.w3.org/2000/svg">
<path d="M25.9699 14.6967C25.9699 9.46991 21.9695 3.77662 15.0052 3.77662V2.41261C22.8558 2.41261 27.3339 8.85684 27.3339 14.6967H25.9699Z" fill="black"/>
<path d="M14.8266 25.929C7.86227 25.929 3.86191 20.2357 3.86191 15.0089H2.4979C2.4979 20.8488 6.97596 27.293 14.8266 27.293V25.929Z" fill="black"/>
<path fill-rule="evenodd" clip-rule="evenodd" d="M30 15C30 23.2843 23.2843 30 15 30C6.71573 30 0 23.2843 0 15C0 6.71573 6.71573 0 15 0C18.9725 0 22.5844 1.54426 25.268 4.06523C25.2532 3.9399 25.2455 3.81236 25.2455 3.68304C25.2455 1.90783 26.6846 0.46875 28.4598 0.46875C30.235 0.46875 31.6741 1.90783 31.6741 3.68304C31.6741 5.45824 30.235 6.89732 28.4598 6.89732C28.1395 6.89732 27.8301 6.85046 27.5382 6.76323C29.0944 9.12741 30 11.958 30 15ZM28.4598 15C28.4598 22.4337 22.4337 28.4598 15 28.4598C7.56635 28.4598 1.54018 22.4337 1.54018 15C1.54018 7.56635 7.56635 1.54018 15 1.54018C22.4337 1.54018 28.4598 7.56635 28.4598 15ZM30.2679 3.68304C30.2679 4.68159 29.4584 5.49107 28.4598 5.49107C27.4613 5.49107 26.6518 4.68159 26.6518 3.68304C26.6518 2.68448 27.4613 1.875 28.4598 1.875C29.4584 1.875 30.2679 2.68448 30.2679 3.68304Z" fill="black"/>
</svg>
