<?xml version="1.0" encoding="UTF-8" standalone="no"?>
<!DOCTYPE svg PUBLIC "-//W3C//DTD SVG 1.1//EN" "http://www.w3.org/Graphics/SVG/1.1/DTD/svg11.dtd">
<svg width="100%" height="100%" viewBox="0 0 396 430" version="1.1" xmlns="http://www.w3.org/2000/svg" xmlns:xlink="http://www.w3.org/1999/xlink" xml:space="preserve" xmlns:serif="http://www.serif.com/" style="fill-rule:evenodd;clip-rule:evenodd;stroke-miterlimit:10;">
    <g transform="matrix(4.16667,0,0,4.16667,-595.833,-995.833)">
        <g transform="matrix(2.68759,6.67401e-32,-6.71215e-32,-2.68759,146.123,344.477)">
            <path d="M16.537,38.874C16.324,38.867 16.199,38.839 16.004,38.755C15.553,38.561 15.5,38.311 15.173,37.807L5.87,22.281L2.433,25.363C1.902,25.942 0.983,25.969 0.418,25.422C-0.163,24.858 -0.134,23.876 0.477,23.348L4.389,19.674C2.078,15.526 -1.41,10.924 0.656,5.629C2.552,0.77 10.018,0 12.507,5.452C14.99,10.89 11.144,15.881 7.945,20.088L16.537,34.666L25.129,20.088C21.93,15.881 18.083,10.89 20.566,5.452C23.055,0 30.522,0.77 32.418,5.629C34.484,10.924 30.996,15.526 28.684,19.674L32.596,23.348C33.208,23.876 33.236,24.858 32.655,25.422C32.091,25.969 31.172,25.942 30.64,25.363L27.203,22.281L17.9,37.807C17.574,38.311 17.522,38.561 17.07,38.755C16.874,38.839 16.75,38.867 16.537,38.874ZM26.671,17.481C28.152,14.992 31.334,11.045 29.87,7.051C28.567,3.496 24.181,3.733 23.055,6.933C21.612,11.035 24.715,14.992 26.671,17.481ZM6.403,17.481C4.922,14.992 1.739,11.045 3.204,7.051C4.507,3.496 8.893,3.733 10.018,6.933C11.461,11.035 8.359,14.992 6.403,17.481Z" style="fill:none;stroke:rgb(219,0,0);stroke-width:0.75px;"/>
        </g>
    </g>
</svg>
